<svg width="45" height="42" viewBox="0 0 45 42" fill="none" xmlns="http://www.w3.org/2000/svg">
<path d="M13.2857 16.7793V31.1241M31.7143 31.1241V23.9517C31.7143 22.4299 31.0671 20.9705 29.9151 19.8944C28.7631 18.8183 27.2006 18.2138 25.5714 18.2138C23.9422 18.2138 22.3798 18.8183 21.2278 19.8944C20.0758 20.9705 19.4286 22.4299 19.4286 23.9517V31.1241V16.7793M11.75 12.4759H14.8214M4.07143 1H40.9286C41.7432 1 42.5244 1.30227 43.1004 1.8403C43.6764 2.37834 44 3.10807 44 3.86897V38.2966C44 39.0575 43.6764 39.7872 43.1004 40.3252C42.5244 40.8633 41.7432 41.1655 40.9286 41.1655H4.07143C3.25684 41.1655 2.47561 40.8633 1.8996 40.3252C1.3236 39.7872 1 39.0575 1 38.2966V3.86897C1 3.10807 1.3236 2.37834 1.8996 1.8403C2.47561 1.30227 3.25684 1 4.07143 1Z" stroke="white"/>
</svg>
