<svg width="45" height="42" viewBox="0 0 45 42" fill="none" xmlns="http://www.w3.org/2000/svg">
<path d="M22.5 41.1655C19.6766 41.1655 16.8808 40.6461 14.2723 39.6368C11.6638 38.6276 9.29366 37.1483 7.2972 35.2834C5.30074 33.4186 3.71707 31.2047 2.63659 28.7681C1.55611 26.3315 1 23.7201 1 21.0828C1 18.4455 1.55611 15.834 2.63659 13.3974C3.71707 10.9609 5.30074 8.74696 7.2972 6.8821C9.29366 5.01725 11.6638 3.53796 14.2723 2.52871C16.8808 1.51946 19.6766 1 22.5 1C28.2022 1 33.6708 3.11586 37.7028 6.8821C41.7348 10.6484 44 15.7565 44 21.0828C44 26.409 41.7348 31.5172 37.7028 35.2834C33.6708 39.0497 28.2022 41.1655 22.5 41.1655ZM22.5 41.1655V18.2138C22.5 16.692 23.1472 15.2325 24.2992 14.1565C25.4512 13.0804 27.0137 12.4759 28.6429 12.4759H30.1786M14.8214 23.9517H30.1786" stroke="white"/>
</svg>
